<svg
                width="32"
                height="32"
                viewBox="0 0 180 180"
                fill="none"
                xmlns="http://www.w3.org/2000/svg"
              >
                <path
                  d="M0 64C0 41.5979 0 30.3968 4.35974 21.8404C8.19467 14.3139 14.3139 8.19467 21.8404 4.35974C30.3968 0 41.5979 0 64 0H116C138.402 0 149.603 0 158.16 4.35974C165.686 8.19467 171.805 14.3139 175.64 21.8404C180 30.3968 180 41.5979 180 64V116C180 138.402 180 149.603 175.64 158.16C171.805 165.686 165.686 171.805 158.16 175.64C149.603 180 138.402 180 116 180H64C41.5979 180 30.3968 180 21.8404 175.64C14.3139 171.805 8.19467 165.686 4.35974 158.16C0 149.603 0 138.402 0 116V64Z"
                  fill="#323232"
                />
                <path
                  d="M30.9081 44L40.8081 22.85H45.1581L55.0581 44H49.5381L47.0481 38.18L49.1481 39.71H36.7881L38.9181 38.18L36.4281 44H30.9081ZM42.9381 28.61L39.4581 36.92L38.6181 35.48H47.3481L46.5081 36.92L42.9981 28.61H42.9381ZM56.3389 44V22.85H60.3889L70.9489 36.02H70.1089V22.85H75.2089V44H71.1889L60.6289 30.8H61.4689V44H56.3389ZM89.2733 44.33C87.6733 44.33 86.2133 44.07 84.8933 43.55C83.5733 43.03 82.4333 42.29 81.4733 41.33C80.5333 40.35 79.8033 39.19 79.2833 37.85C78.7833 36.51 78.5333 35.03 78.5333 33.41C78.5333 31.77 78.7833 30.28 79.2833 28.94C79.8033 27.6 80.5333 26.45 81.4733 25.49C82.4333 24.53 83.5733 23.8 84.8933 23.3C86.2133 22.78 87.6733 22.52 89.2733 22.52C90.8733 22.52 92.3333 22.78 93.6533 23.3C94.9733 23.8 96.1033 24.53 97.0433 25.49C98.0033 26.45 98.7333 27.6 99.2333 28.94C99.7533 30.26 100.013 31.74 100.013 33.38C100.013 35.04 99.7533 36.54 99.2333 37.88C98.7333 39.22 98.0033 40.38 97.0433 41.36C96.1033 42.32 94.9733 43.06 93.6533 43.58C92.3333 44.08 90.8733 44.33 89.2733 44.33ZM89.2733 39.71C90.3333 39.71 91.2333 39.46 91.9733 38.96C92.7133 38.46 93.2833 37.74 93.6833 36.8C94.0833 35.86 94.2833 34.73 94.2833 33.41C94.2833 32.09 94.0833 30.96 93.6833 30.02C93.3033 29.08 92.7333 28.37 91.9733 27.89C91.2333 27.39 90.3333 27.14 89.2733 27.14C88.2333 27.14 87.3333 27.39 86.5733 27.89C85.8333 28.37 85.2633 29.08 84.8633 30.02C84.4633 30.96 84.2633 32.09 84.2633 33.41C84.2633 34.73 84.4533 35.86 84.8333 36.8C85.2333 37.74 85.8133 38.46 86.5733 38.96C87.3333 39.46 88.2333 39.71 89.2733 39.71Z"
                  fill="white"
                />
                <path
                  d="M113.953 44.33C111.613 44.33 109.603 43.88 107.923 42.98C106.243 42.08 104.953 40.81 104.053 39.17C103.173 37.53 102.733 35.61 102.733 33.41C102.733 31.21 103.173 29.3 104.053 27.68C104.953 26.04 106.243 24.77 107.923 23.87C109.603 22.97 111.613 22.52 113.953 22.52C115.353 22.52 116.703 22.73 118.003 23.15C119.303 23.57 120.353 24.14 121.153 24.86L119.503 29.21C118.623 28.57 117.743 28.1 116.863 27.8C115.983 27.48 115.083 27.32 114.163 27.32C112.303 27.32 110.903 27.85 109.963 28.91C109.023 29.95 108.553 31.45 108.553 33.41C108.553 35.39 109.023 36.91 109.963 37.97C110.903 39.01 112.303 39.53 114.163 39.53C115.083 39.53 115.983 39.38 116.863 39.08C117.743 38.76 118.623 38.28 119.503 37.64L121.153 41.99C120.353 42.69 119.303 43.26 118.003 43.7C116.703 44.12 115.353 44.33 113.953 44.33ZM123.928 44V22.85H128.518L135.808 35.9H134.758L142.018 22.85H146.488V44H141.508V31.43H142.138L136.678 40.88H133.678L128.218 31.4H128.908V44H123.928Z"
                  fill="#009DFF"
                />
                <path
                  d="M67.1605 127C63.7998 127 62.7557 124.176 64.485 121.904C65.9533 119.989 68.694 116.159 70.1623 113.335C59.8519 108.596 53 99.1508 53 88.5045C53 72.178 69.4444 59 90 59C110.556 59 127 72.178 127 88.5045C127 105.513 109.936 118.496 87.194 117.879C80.5705 122.586 71.5653 127 67.1605 127ZM70.5864 121.612C73.5556 120.411 79.3633 116.841 83.3765 113.952C84.6164 112.978 85.6605 112.556 87.0309 112.556C88.336 112.589 89.3474 112.621 90 112.621C107.619 112.621 121.616 101.78 121.616 88.5045C121.616 75.1967 107.619 64.3556 90 64.3556C72.4136 64.3556 58.4162 75.1967 58.4162 88.5045C58.4162 97.1384 64.2892 104.701 74.5344 109.44C76.6226 110.414 76.851 111.907 75.9374 113.595C74.828 115.672 72.2178 119.048 70.3907 121.287C70.2275 121.515 70.3254 121.709 70.5864 121.612Z"
                  fill="white"
                />
                <rect
                  x="55"
                  y="146"
                  width="15"
                  height="15"
                  rx="7.5"
                  fill="#009DFF"
                />
                <rect
                  x="82"
                  y="146"
                  width="15"
                  height="15"
                  rx="7.5"
                  fill="#009DFF"
                />
                <rect
                  x="109"
                  y="146"
                  width="15"
                  height="15"
                  rx="7.5"
                  fill="#009DFF"
                />
                <path
                  d="M89.9922 79.5C90.032 79.5008 90.071 79.5091 90.1074 79.5234L90.1836 79.5527L90.2646 79.5576C93.0299 79.7018 95.2273 81.902 95.2275 84.5996V86.7002H97.3633C98.0018 86.7002 98.4999 87.2026 98.5 87.7998V97.4004C98.4998 97.9975 98.0017 98.5 97.3633 98.5H82.6367C81.9983 98.5 81.5002 97.9975 81.5 97.4004V87.7998C81.5001 87.2026 81.9982 86.7002 82.6367 86.7002H84.7725V84.5996C84.7727 81.8055 87.1079 79.5041 89.9922 79.5ZM90 80.0996C87.4653 80.0996 85.4094 82.0942 85.4092 84.5996V86.7002H94.5908V84.5996C94.5906 82.0942 92.5347 80.0996 90 80.0996Z"
                  fill="white"
                  stroke="white"
                />
              </svg>